<svg width="25" height="25" viewBox="0 0 25 25" fill="none" xmlns="http://www.w3.org/2000/svg">
<path d="M6.16875 8.2011L7.7625 14.7228H18.1125L19.8125 7.76632H6.0625L6.16875 8.2011ZM6.16875 8.2011L5.2125 4.72284H1.8125" stroke="white" stroke-linecap="square"/>
<path d="M8.8125 19.2228C9.64093 19.2228 10.3125 18.5513 10.3125 17.7228C10.3125 16.8944 9.64093 16.2228 8.8125 16.2228C7.98407 16.2228 7.3125 16.8944 7.3125 17.7228C7.3125 18.5513 7.98407 19.2228 8.8125 19.2228Z" stroke="white"/>
<path d="M16.8125 19.2228C17.6409 19.2228 18.3125 18.5513 18.3125 17.7228C18.3125 16.8944 17.6409 16.2228 16.8125 16.2228C15.9841 16.2228 15.3125 16.8944 15.3125 17.7228C15.3125 18.5513 15.9841 19.2228 16.8125 19.2228Z" stroke="white"/>
</svg>
