<svg width="16" height="13" viewBox="0 0 16 13" fill="none" xmlns="http://www.w3.org/2000/svg">
<path d="M14.9942 5.88696C14.9942 5.68384 14.916 5.49634 14.7598 5.3479L9.87696 0.4729C9.70508 0.308838 9.5332 0.238525 9.3457 0.238525C8.94727 0.238525 8.64258 0.527588 8.64258 0.926025C8.64258 1.12134 8.71289 1.30102 8.8457 1.42602L10.502 3.11352L12.8692 5.27759L11.1114 5.16821H1.89258C1.47852 5.16821 1.18164 5.46509 1.18164 5.88696C1.18164 6.30102 1.47852 6.5979 1.89258 6.5979H11.1114L12.877 6.48852L10.502 8.65259L8.8457 10.3401C8.7207 10.4651 8.64258 10.6448 8.64258 10.8401C8.64258 11.2385 8.94727 11.5276 9.3457 11.5276C9.5332 11.5276 9.69727 11.4573 9.86133 11.3088L14.7598 6.41821C14.916 6.26978 14.9942 6.08228 14.9942 5.88696Z" fill="#F9858D"/>
</svg>
