<svg width="77" height="19" viewBox="0 0 77 19" fill="none" xmlns="http://www.w3.org/2000/svg">
<mask id="mask0_1061_3296" style="mask-type:luminance" maskUnits="userSpaceOnUse" x="0" y="0" width="77" height="19">
<path d="M76.8926 0.722839H0.892578V18.7228H76.8926V0.722839Z" fill="white"/>
</mask>
<g mask="url(#mask0_1061_3296)">
<path fill-rule="evenodd" clip-rule="evenodd" d="M13.2695 17.7986C12.2155 18.2807 11.0003 18.5216 9.62539 18.5216C8.37208 18.5216 7.21495 18.3151 6.15261 17.9019C5.09082 17.4884 4.16998 16.903 3.39118 16.1448C2.61184 15.3869 2.00025 14.48 1.55751 13.4232C1.11395 12.3668 0.892578 11.2034 0.892578 9.93236C0.892578 8.63138 1.11809 7.45196 1.56884 6.3955C2.01959 5.33904 2.64196 4.43987 3.43706 3.69716C4.23105 2.95445 5.16323 2.38427 6.23303 1.98605C7.30228 1.58812 8.45637 1.38901 9.69393 1.38901C10.84 1.38901 11.9665 1.59199 13.0747 1.99741C14.1824 2.40338 15.0806 2.99655 15.7676 3.77747L13.1093 6.44147C12.7422 5.93636 12.2614 5.56141 11.6653 5.31605C11.0694 5.07153 10.4578 4.94885 9.83184 4.94885C9.14397 4.94885 8.51358 5.07513 7.94096 5.32768C7.36778 5.58024 6.87475 5.92861 6.46241 6.37251C6.04952 6.81698 5.72894 7.34119 5.49956 7.94572C5.27073 8.55079 5.15576 9.21292 5.15576 9.93236C5.15576 10.6673 5.27073 11.3413 5.49956 11.9536C5.72894 12.5659 6.04566 13.0904 6.45053 13.5268C6.8554 13.9629 7.34069 14.3041 7.90641 14.5486C8.47157 14.7937 9.09008 14.9164 9.76274 14.9164C10.5421 14.9164 11.2217 14.7632 11.8023 14.457C12.3832 14.1507 12.8492 13.753 13.201 13.2623L15.9284 15.8347C15.2099 16.6618 14.3236 17.3162 13.2695 17.7986Z" fill="white"/>
<path fill-rule="evenodd" clip-rule="evenodd" d="M24.6846 12.321C24.6846 11.9535 24.6232 11.5938 24.5011 11.2418C24.3786 10.8896 24.2031 10.5794 23.974 10.3114C23.7449 10.0436 23.4617 9.82538 23.1259 9.65673C22.7898 9.48836 22.3999 9.40418 21.9569 9.40418C21.5136 9.40418 21.1239 9.48836 20.7878 9.65673C20.4518 9.82538 20.1729 10.0436 19.9513 10.3114C19.7296 10.5794 19.5619 10.8896 19.4472 11.2418C19.3328 11.5938 19.2753 11.9535 19.2753 12.321C19.2753 12.6884 19.3328 13.0482 19.4472 13.4001C19.5619 13.7529 19.7338 14.0703 19.9629 14.3533C20.192 14.6369 20.4747 14.8628 20.8108 15.0309C21.1468 15.1999 21.5365 15.2835 21.9798 15.2835C22.4228 15.2835 22.8128 15.1999 23.1488 15.0309C23.4846 14.8628 23.7679 14.6369 23.997 14.3533C24.2261 14.0703 24.398 13.7529 24.5127 13.4001C24.6271 13.0482 24.6846 12.6884 24.6846 12.321ZM28.306 12.321C28.306 13.255 28.1375 14.1008 27.8014 14.8587C27.4653 15.6166 27.0068 16.2599 26.4265 16.7877C25.8456 17.3161 25.1735 17.7262 24.4093 18.0164C23.6452 18.3072 22.828 18.4532 21.9569 18.4532C21.101 18.4532 20.2873 18.3072 19.516 18.0164C18.7441 17.7262 18.072 17.3161 17.4988 16.7877C16.9259 16.2599 16.471 15.6166 16.135 14.8587C15.7989 14.1008 15.6309 13.255 15.6309 12.321C15.6309 11.3872 15.7989 10.5451 16.135 9.79464C16.471 9.04445 16.9259 8.40919 17.4988 7.8883C18.072 7.36796 18.7441 6.96975 19.516 6.69421C20.2873 6.41867 21.101 6.28076 21.9569 6.28076C22.828 6.28076 23.6452 6.41867 24.4093 6.69421C25.1735 6.96975 25.8456 7.36796 26.4265 7.8883C27.0068 8.40919 27.4653 9.04445 27.8014 9.79464C28.1375 10.5451 28.306 11.3872 28.306 12.321Z" fill="white"/>
<mask id="mask1_1061_3296" style="mask-type:alpha" maskUnits="userSpaceOnUse" x="0" y="0" width="77" height="19">
<path d="M0.892578 18.5217H76.7345V0.722839H0.892578V18.5217Z" fill="white"/>
</mask>
<g mask="url(#mask1_1061_3296)">
<path fill-rule="evenodd" clip-rule="evenodd" d="M29.8184 18.0857H33.6463V0.722961H29.8184V18.0857Z" fill="white"/>
<path fill-rule="evenodd" clip-rule="evenodd" d="M44.165 12.321C44.165 11.9535 44.1037 11.5938 43.9815 11.2418C43.8591 10.8896 43.6836 10.5794 43.4545 10.3114C43.2254 10.0436 42.9421 9.82538 42.6063 9.65673C42.2703 9.48836 41.8803 9.40418 41.4373 9.40418C40.994 9.40418 40.6043 9.48836 40.2683 9.65673C39.9322 9.82538 39.6534 10.0436 39.4317 10.3114C39.2101 10.5794 39.0423 10.8896 38.9276 11.2418C38.8132 11.5938 38.7557 11.9535 38.7557 12.321C38.7557 12.6884 38.8132 13.0482 38.9276 13.4001C39.0423 13.7529 39.2142 14.0703 39.4433 14.3533C39.6724 14.6369 39.9552 14.8628 40.2912 15.0309C40.6273 15.1999 41.017 15.2835 41.4602 15.2835C41.9033 15.2835 42.2932 15.1999 42.6293 15.0309C42.965 14.8628 43.2483 14.6369 43.4774 14.3533C43.7065 14.0703 43.8784 13.7529 43.9931 13.4001C44.1075 13.0482 44.165 12.6884 44.165 12.321ZM47.7865 12.321C47.7865 13.255 47.6179 14.1008 47.2818 14.8587C46.9458 15.6166 46.4873 16.2599 45.9069 16.7877C45.326 17.3161 44.6539 17.7262 43.8898 18.0164C43.1256 18.3072 42.3084 18.4532 41.4373 18.4532C40.5814 18.4532 39.7678 18.3072 38.9965 18.0164C38.2246 17.7262 37.5525 17.3161 36.9793 16.7877C36.4064 16.2599 35.9515 15.6166 35.6154 14.8587C35.2794 14.1008 35.1113 13.255 35.1113 12.321C35.1113 11.3872 35.2794 10.5451 35.6154 9.79464C35.9515 9.04445 36.4064 8.40919 36.9793 7.8883C37.5525 7.36796 38.2246 6.96975 38.9965 6.69421C39.7678 6.41867 40.5814 6.28076 41.4373 6.28076C42.3084 6.28076 43.1256 6.41867 43.8898 6.69421C44.6539 6.96975 45.326 7.36796 45.9069 7.8883C46.4873 8.40919 46.9458 9.04445 47.2818 9.79464C47.6179 10.5451 47.7865 11.3872 47.7865 12.321Z" fill="white"/>
<path fill-rule="evenodd" clip-rule="evenodd" d="M55.9693 10.0242C55.6637 9.73375 55.3047 9.48839 54.8924 9.28929C54.4795 9.09045 54.0442 8.99076 53.5857 8.99076C53.2342 8.99076 52.9097 9.05972 52.6118 9.19762C52.3136 9.33525 52.1646 9.57285 52.1646 9.90959C52.1646 10.2308 52.3285 10.4607 52.6577 10.5986C52.9857 10.7362 53.5169 10.8896 54.2504 11.0577C54.6779 11.1496 55.1101 11.28 55.5454 11.4484C55.9809 11.6171 56.3742 11.8389 56.7257 12.1141C57.0773 12.39 57.3597 12.727 57.5739 13.1246C57.7875 13.5231 57.8948 13.9975 57.8948 14.5486C57.8948 15.2683 57.7491 15.8772 57.4592 16.3746C57.1688 16.8722 56.7907 17.2743 56.3247 17.58C55.8585 17.8869 55.3351 18.1084 54.7544 18.2463C54.1738 18.384 53.5932 18.4529 53.0128 18.4529C52.0806 18.4529 51.1675 18.3036 50.2738 18.0051C49.3797 17.7066 48.6349 17.2666 48.0391 16.6845L50.1477 14.4569C50.4835 14.8244 50.8964 15.1307 51.3853 15.3755C51.8745 15.6205 52.3937 15.7427 52.944 15.7427C53.2494 15.7427 53.5514 15.6704 53.8494 15.5247C54.1473 15.3793 54.2962 15.1229 54.2962 14.7554C54.2962 14.4032 54.1127 14.1432 53.7463 13.9748C53.3795 13.8061 52.8066 13.63 52.027 13.4461C51.6296 13.3542 51.2325 13.2321 50.8353 13.0789C50.4376 12.9261 50.0825 12.7192 49.7694 12.4586C49.4563 12.1986 49.2001 11.8771 49.0017 11.4944C48.803 11.1117 48.7037 10.6523 48.7037 10.1162C48.7037 9.42719 48.8486 8.8415 49.1393 8.3591C49.4292 7.87698 49.8037 7.48292 50.2624 7.17636C50.7206 6.87036 51.2286 6.64467 51.7863 6.49901C52.3443 6.35362 52.8981 6.28079 53.4484 6.28079C54.304 6.28079 55.1403 6.41482 55.958 6.68261C56.7752 6.95067 57.4667 7.35276 58.0324 7.88833L55.9693 10.0242Z" fill="white"/>
<path fill-rule="evenodd" clip-rule="evenodd" d="M67.6356 12.321C67.6356 11.9535 67.5743 11.5938 67.4521 11.2418C67.3297 10.8896 67.1542 10.5794 66.9251 10.3114C66.696 10.0436 66.4127 9.82538 66.0769 9.65673C65.7409 9.48836 65.3509 9.40418 64.9079 9.40418C64.4646 9.40418 64.075 9.48836 63.7389 9.65673C63.4028 9.82538 63.124 10.0436 62.9023 10.3114C62.6807 10.5794 62.513 10.8896 62.3983 11.2418C62.2838 11.5938 62.2264 11.9535 62.2264 12.321C62.2264 12.6884 62.2838 13.0482 62.3983 13.4001C62.513 13.7529 62.6848 14.0703 62.914 14.3533C63.1431 14.6369 63.4258 14.8628 63.7618 15.0309C64.0979 15.1999 64.4876 15.2835 64.9309 15.2835C65.3739 15.2835 65.7638 15.1999 66.0999 15.0309C66.4357 14.8628 66.7189 14.6369 66.948 14.3533C67.1771 14.0703 67.349 13.7529 67.4637 13.4001C67.5781 13.0482 67.6356 12.6884 67.6356 12.321ZM71.2571 12.321C71.2571 13.255 71.0885 14.1008 70.7525 14.8587C70.4164 15.6166 69.9579 16.2599 69.3776 16.7877C68.7966 17.3161 68.1245 17.7262 67.3604 18.0164C66.5962 18.3072 65.779 18.4532 64.9079 18.4532C64.052 18.4532 63.2384 18.3072 62.4671 18.0164C61.6952 17.7262 61.0231 17.3161 60.4499 16.7877C59.877 16.2599 59.4221 15.6166 59.086 14.8587C58.75 14.1008 58.582 13.255 58.582 12.321C58.582 11.3872 58.75 10.5451 59.086 9.79464C59.4221 9.04445 59.877 8.40919 60.4499 7.8883C61.0231 7.36796 61.6952 6.96975 62.4671 6.69421C63.2384 6.41867 64.052 6.28076 64.9079 6.28076C65.779 6.28076 66.5962 6.41867 67.3604 6.69421C68.1245 6.96975 68.7966 7.36796 69.3776 7.8883C69.9579 8.40919 70.4164 9.04445 70.7525 9.79464C71.0885 10.5451 71.2571 11.3872 71.2571 12.321Z" fill="white"/>
<path fill-rule="evenodd" clip-rule="evenodd" d="M76.7354 16.0647C76.7354 16.7077 76.5099 17.2438 76.0595 17.6722C75.6084 18.1006 75.0701 18.3152 74.4436 18.3152C74.1227 18.3152 73.8206 18.2579 73.5382 18.1433C73.2552 18.0281 73.007 17.8713 72.7931 17.6722C72.5792 17.4734 72.4112 17.2399 72.289 16.9715C72.1666 16.7041 72.1055 16.4092 72.1055 16.0874C72.1055 15.7814 72.1666 15.4903 72.289 15.2151C72.4112 14.9393 72.5792 14.6978 72.7931 14.4912C73.007 14.2846 73.2552 14.1204 73.5382 13.9974C73.8206 13.8753 74.1227 13.8138 74.4436 13.8138C75.0701 13.8138 75.6084 14.0282 76.0595 14.4569C76.5099 14.8855 76.7354 15.4217 76.7354 16.0647Z" fill="#FFB200"/>
</g>
</g>
</svg>
