<svg width="25" height="25" viewBox="0 0 25 25" fill="none" xmlns="http://www.w3.org/2000/svg">
<path d="M6.24883 8.2011L7.84258 14.7228H18.1926L19.8926 7.76632H6.14258L6.24883 8.2011ZM6.24883 8.2011L5.29258 4.72284H1.89258" stroke="white" stroke-width="2" stroke-linecap="square"/>
<path d="M8.89258 19.2228C9.72101 19.2228 10.3926 18.5513 10.3926 17.7228C10.3926 16.8944 9.72101 16.2228 8.89258 16.2228C8.06415 16.2228 7.39258 16.8944 7.39258 17.7228C7.39258 18.5513 8.06415 19.2228 8.89258 19.2228Z" stroke="white" stroke-width="2"/>
<path d="M16.8926 19.2228C17.721 19.2228 18.3926 18.5513 18.3926 17.7228C18.3926 16.8944 17.721 16.2228 16.8926 16.2228C16.0642 16.2228 15.3926 16.8944 15.3926 17.7228C15.3926 18.5513 16.0642 19.2228 16.8926 19.2228Z" stroke="white" stroke-width="2"/>
</svg>
