<svg width="25" height="25" viewBox="0 0 25 25" fill="none" xmlns="http://www.w3.org/2000/svg">
<path fill-rule="evenodd" clip-rule="evenodd" d="M18.337 16.7121C20.6091 13.7118 20.377 9.41947 17.6406 6.6831C14.6506 3.69307 9.80286 3.69307 6.81283 6.6831C3.82281 9.67313 3.82281 14.5209 6.81283 17.5109C9.57717 20.2753 13.9294 20.4839 16.9334 18.1369L20.1857 21.3892L20.8928 22.0963L22.307 20.6821L21.5999 19.975L18.337 16.7121ZM16.2264 8.09731C18.4354 10.3063 18.4354 13.8877 16.2264 16.0967C14.0174 18.3057 10.436 18.3057 8.22705 16.0967C6.01807 13.8877 6.01807 10.3063 8.22705 8.09731C10.436 5.88833 14.0174 5.88833 16.2264 8.09731Z" fill="white"/>
</svg>
