<svg width="25" height="25" viewBox="0 0 25 25" fill="none" xmlns="http://www.w3.org/2000/svg">
<path fill-rule="evenodd" clip-rule="evenodd" d="M15.6643 15.0844C17.4494 13.1221 17.3941 10.083 15.4984 8.18731C13.5458 6.23468 10.38 6.23468 8.42736 8.18731C6.47474 10.1399 6.47474 13.3057 8.42736 15.2583C10.1976 17.0286 12.965 17.1939 14.9215 15.7543L15.2347 16.0867L17.2921 18.2701L17.635 18.634L18.3628 17.9482L18.0199 17.5843L15.9625 15.4009L15.6643 15.0844ZM14.7913 8.89441C16.3534 10.4565 16.3534 12.9891 14.7913 14.5512C13.2292 16.1133 10.6966 16.1133 9.13447 14.5512C7.57237 12.9891 7.57237 10.4565 9.13447 8.89441C10.6966 7.33232 13.2292 7.33232 14.7913 8.89441Z" fill="#A0A0A0"/>
</svg>
